<svg width="251" height="82" viewBox="0 0 251 82" fill="none" xmlns="http://www.w3.org/2000/svg">
<path d="M112.71 53.7349C110.964 53.7349 109.392 53.4356 107.995 52.8369C106.599 52.2133 105.501 51.3403 104.703 50.2178C103.905 49.0953 103.506 47.7858 103.506 46.2891H108.07C108.17 47.4116 108.607 48.3345 109.38 49.0579C110.178 49.7813 111.288 50.143 112.71 50.143C114.182 50.143 115.329 49.7938 116.152 49.0953C116.975 48.3719 117.387 47.449 117.387 46.3265C117.387 45.4535 117.125 44.7426 116.601 44.1938C116.102 43.645 115.466 43.221 114.693 42.9217C113.945 42.6223 112.897 42.2981 111.55 41.9488C109.854 41.4998 108.469 41.0508 107.397 40.6019C106.349 40.1279 105.451 39.4045 104.703 38.4317C103.955 37.4589 103.58 36.1618 103.58 34.5404C103.58 33.0438 103.955 31.7342 104.703 30.6117C105.451 29.4893 106.499 28.6287 107.846 28.03C109.193 27.4314 110.752 27.132 112.523 27.132C115.042 27.132 117.1 27.7681 118.696 29.0403C120.318 30.2875 121.216 32.0086 121.39 34.2037H116.676C116.601 33.2558 116.152 32.4451 115.329 31.7716C114.506 31.0981 113.421 30.7614 112.074 30.7614C110.852 30.7614 109.854 31.0732 109.081 31.6968C108.307 32.3204 107.921 33.2184 107.921 34.3908C107.921 35.189 108.158 35.85 108.632 36.3738C109.13 36.8727 109.754 37.2718 110.502 37.5711C111.251 37.8705 112.273 38.1947 113.57 38.544C115.292 39.0179 116.688 39.4918 117.761 39.9658C118.859 40.4397 119.782 41.1756 120.53 42.1733C121.303 43.1461 121.69 44.4557 121.69 46.102C121.69 47.4241 121.328 48.6713 120.605 49.8436C119.906 51.016 118.871 51.9639 117.499 52.6873C116.152 53.3857 114.556 53.7349 112.71 53.7349ZM134.88 43.1836L144.383 53.473H138.621L130.988 44.6054V53.473H126.723V25.7851H130.988V41.874L138.472 32.8567H144.383L134.88 43.1836ZM165.999 32.8567L153.352 63.1638H148.937L153.128 53.1363L145.009 32.8567H149.76L155.56 48.5715L161.584 32.8567H165.999ZM177.786 53.7349C176.04 53.7349 174.469 53.4356 173.072 52.8369C171.675 52.2133 170.577 51.3403 169.779 50.2178C168.981 49.0953 168.582 47.7858 168.582 46.2891H173.147C173.246 47.4116 173.683 48.3345 174.456 49.0579C175.254 49.7813 176.364 50.143 177.786 50.143C179.258 50.143 180.405 49.7938 181.229 49.0953C182.052 48.3719 182.463 47.449 182.463 46.3265C182.463 45.4535 182.201 44.7426 181.678 44.1938C181.179 43.645 180.543 43.221 179.769 42.9217C179.021 42.6223 177.973 42.2981 176.626 41.9488C174.93 41.4998 173.546 41.0508 172.473 40.6019C171.425 40.1279 170.528 39.4045 169.779 38.4317C169.031 37.4589 168.657 36.1618 168.657 34.5404C168.657 33.0438 169.031 31.7342 169.779 30.6117C170.528 29.4893 171.575 28.6287 172.922 28.03C174.269 27.4314 175.828 27.132 177.599 27.132C180.119 27.132 182.176 27.7681 183.773 29.0403C185.394 30.2875 186.292 32.0086 186.467 34.2037H181.752C181.678 33.2558 181.229 32.4451 180.405 31.7716C179.582 31.0981 178.497 30.7614 177.15 30.7614C175.928 30.7614 174.93 31.0732 174.157 31.6968C173.384 32.3204 172.997 33.2184 172.997 34.3908C172.997 35.189 173.234 35.85 173.708 36.3738C174.207 36.8727 174.83 37.2718 175.579 37.5711C176.327 37.8705 177.35 38.1947 178.647 38.544C180.368 39.0179 181.765 39.4918 182.837 39.9658C183.935 40.4397 184.858 41.1756 185.606 42.1733C186.379 43.1461 186.766 44.4557 186.766 46.102C186.766 47.4241 186.404 48.6713 185.681 49.8436C184.983 51.016 183.947 51.9639 182.576 52.6873C181.229 53.3857 179.632 53.7349 177.786 53.7349ZM190.377 43.0713C190.377 41.001 190.801 39.1676 191.65 37.5711C192.523 35.9747 193.695 34.74 195.167 33.8669C196.663 32.969 198.31 32.52 200.106 32.52C201.727 32.52 203.136 32.8442 204.334 33.4928C205.556 34.1164 206.529 34.9021 207.252 35.85V32.8567H211.555V53.473H207.252V50.4049C206.529 51.3777 205.543 52.1884 204.296 52.8369C203.049 53.4855 201.627 53.8098 200.031 53.8098C198.26 53.8098 196.638 53.3608 195.167 52.4628C193.695 51.5398 192.523 50.2677 191.65 48.6463C190.801 47 190.377 45.1417 190.377 43.0713ZM207.252 43.1461C207.252 41.7243 206.953 40.4896 206.354 39.442C205.78 38.3943 205.02 37.5961 204.072 37.0473C203.124 36.4985 202.101 36.2242 201.004 36.2242C199.906 36.2242 198.883 36.4985 197.935 37.0473C196.988 37.5711 196.214 38.3569 195.616 39.4045C195.042 40.4272 194.755 41.6495 194.755 43.0713C194.755 44.4931 195.042 45.7403 195.616 46.8129C196.214 47.8855 196.988 48.7087 197.935 49.2824C198.908 49.8312 199.931 50.1056 201.004 50.1056C202.101 50.1056 203.124 49.8312 204.072 49.2824C205.02 48.7336 205.78 47.9354 206.354 46.8878C206.953 45.8152 207.252 44.568 207.252 43.1461ZM225.801 36.3364H221.984V53.473H217.681V36.3364H215.249V32.8567H217.681V31.3975C217.681 29.0278 218.305 27.3066 219.552 26.234C220.824 25.1365 222.807 24.5877 225.501 24.5877V28.1423C224.204 28.1423 223.294 28.3917 222.77 28.8906C222.246 29.3645 221.984 30.2002 221.984 31.3975V32.8567H225.801V36.3364ZM248.476 42.6597C248.476 43.433 248.426 44.1314 248.326 44.755H232.574C232.699 46.4014 233.31 47.7234 234.407 48.7212C235.505 49.7189 236.852 50.2178 238.448 50.2178C240.743 50.2178 242.365 49.2575 243.312 47.3368H247.915C247.291 49.2325 246.156 50.7915 244.51 52.0138C242.888 53.2111 240.868 53.8098 238.448 53.8098C236.478 53.8098 234.707 53.3732 233.135 52.5002C231.589 51.6022 230.366 50.355 229.468 48.7586C228.595 47.1372 228.159 45.2664 228.159 43.1461C228.159 41.0259 228.583 39.1676 229.431 37.5711C230.304 35.9498 231.514 34.7026 233.06 33.8295C234.632 32.9565 236.428 32.52 238.448 32.52C240.394 32.52 242.128 32.944 243.649 33.7921C245.171 34.6402 246.356 35.8375 247.204 37.3841C248.052 38.9057 248.476 40.6642 248.476 42.6597ZM244.023 41.3128C243.998 39.7413 243.437 38.4816 242.34 37.5337C241.242 36.5859 239.883 36.1119 238.261 36.1119C236.79 36.1119 235.53 36.5859 234.482 37.5337C233.435 38.4567 232.811 39.7163 232.611 41.3128H244.023Z" fill="white"/>
<rect opacity="0.2" width="74.8323" height="74.8323" rx="37.4161" fill="white"/>
<rect x="32.7391" y="31.1801" width="49.8882" height="49.8882" rx="24.9441" fill="white"/>
</svg>
